<svg width="1238" height="326" viewBox="0 0 1238 326" fill="none" xmlns="http://www.w3.org/2000/svg">
<path d="M251.594 10.248V326H213.873L42.2227 78.0605H38.832V326H0.6875V10.248H37.5605L210.482 258.611H213.449V10.248H251.594ZM402.053 331.086C379.307 331.086 359.599 326 342.929 315.828C326.399 305.656 313.685 291.458 304.784 273.233C295.884 254.868 291.434 233.605 291.434 209.447C291.434 185.148 295.813 163.744 304.572 145.237C313.331 126.73 325.622 112.249 341.445 101.795C357.41 91.3405 376.058 86.1133 397.391 86.1133C409.682 86.1133 421.902 88.1618 434.052 92.2588C446.201 96.3558 457.221 102.996 467.11 112.179C477.141 121.362 485.123 133.511 491.057 148.628C496.99 163.744 499.957 182.322 499.957 204.361V220.043H317.287V188.68H480.249L463.508 200.547C463.508 184.724 461.035 170.667 456.091 158.376C451.146 146.085 443.729 136.408 433.84 129.344C424.092 122.28 411.942 118.748 397.391 118.748C382.839 118.748 370.336 122.351 359.882 129.556C349.569 136.619 341.657 145.873 336.147 157.316C330.638 168.76 327.883 181.051 327.883 194.189V214.957C327.883 232.899 330.991 248.086 337.207 260.519C343.423 272.951 352.112 282.416 363.272 288.915C374.433 295.272 387.36 298.451 402.053 298.451C411.518 298.451 420.136 297.109 427.906 294.425C435.676 291.599 442.387 287.432 448.038 281.922C453.689 276.271 457.998 269.348 460.965 261.154L496.143 271.326C492.469 283.193 486.253 293.648 477.494 302.689C468.876 311.59 458.139 318.583 445.283 323.669C432.427 328.614 418.017 331.086 402.053 331.086ZM551.664 89.0801L608.033 186.137L664.826 89.0801H706.785L630.496 207.752L706.785 326H664.826L608.033 234.029L551.664 326H509.705L584.723 207.752L509.705 89.0801H551.664ZM738.572 326V89.0801H774.598V326H738.572ZM756.797 49.6641C749.733 49.6641 743.658 47.2624 738.572 42.459C733.486 37.6556 730.943 31.8633 730.943 25.082C730.943 18.3008 733.486 12.5085 738.572 7.70508C743.658 2.90169 749.733 0.5 756.797 0.5C763.861 0.5 769.936 2.90169 775.021 7.70508C780.107 12.5085 782.65 18.3008 782.65 25.082C782.65 31.8633 780.107 37.6556 775.021 42.459C769.936 47.2624 763.861 49.6641 756.797 49.6641ZM1014.48 89.0801L927.176 326H889.879L802.57 89.0801H841.986L907.256 278.107H909.799L975.068 89.0801H1014.48ZM1129.77 331.086C1108.43 331.086 1089.71 326 1073.61 315.828C1057.5 305.656 1044.93 291.387 1035.89 273.021C1026.99 254.656 1022.54 233.323 1022.54 209.023C1022.54 184.3 1026.99 162.756 1035.89 144.39C1044.93 125.882 1057.5 111.543 1073.61 101.371C1089.71 91.1992 1108.43 86.1133 1129.77 86.1133C1151.24 86.1133 1170.03 91.1992 1186.13 101.371C1202.24 111.543 1214.81 125.882 1223.86 144.39C1232.9 162.756 1237.42 184.3 1237.42 209.023C1237.42 233.323 1232.9 254.656 1223.86 273.021C1214.81 291.387 1202.24 305.656 1186.13 315.828C1170.03 326 1151.24 331.086 1129.77 331.086ZM1129.77 298.451C1146.15 298.451 1159.57 294.284 1170.03 285.948C1180.48 277.613 1188.25 266.664 1193.34 253.102C1198.43 239.398 1200.97 224.705 1200.97 209.023C1200.97 193.059 1198.43 178.225 1193.34 164.521C1188.25 150.818 1180.48 139.798 1170.03 131.463C1159.57 122.986 1146.15 118.748 1129.77 118.748C1113.66 118.748 1100.38 122.986 1089.93 131.463C1079.47 139.798 1071.7 150.818 1066.62 164.521C1061.53 178.225 1058.99 193.059 1058.99 209.023C1058.99 224.705 1061.53 239.398 1066.62 253.102C1071.7 266.664 1079.47 277.613 1089.93 285.948C1100.38 294.284 1113.66 298.451 1129.77 298.451Z" fill="white" fill-opacity="0.3"/>
</svg>
