<svg width="127" height="44" viewBox="0 0 127 44" fill="none" xmlns="http://www.w3.org/2000/svg">
<rect width="44" height="44" rx="22" fill="black"/>
<path fill-rule="evenodd" clip-rule="evenodd" d="M32 12V18V32H26V25.0033C25.9982 28.8678 22.8649 32 19 32C15.134 32 12 28.866 12 25C12 21.134 15.134 18 19 18C22.8649 18 25.9982 21.1322 26 24.9967V18H19H12V12L26 12L32 12Z" fill="white"/>
<path d="M71.4219 13.5391V31H69.3359L59.8438 17.2891H59.6562V31H57.5469V13.5391H59.5859L69.1484 27.2734H69.3125V13.5391H71.4219ZM79.7422 31.2812C78.4844 31.2812 77.3945 31 76.4727 30.4375C75.5586 29.875 74.8555 29.0898 74.3633 28.082C73.8711 27.0664 73.625 25.8906 73.625 24.5547C73.625 23.2109 73.8672 22.0273 74.3516 21.0039C74.8359 19.9805 75.5156 19.1797 76.3906 18.6016C77.2734 18.0234 78.3047 17.7344 79.4844 17.7344C80.1641 17.7344 80.8398 17.8477 81.5117 18.0742C82.1836 18.3008 82.793 18.668 83.3398 19.1758C83.8945 19.6836 84.3359 20.3555 84.6641 21.1914C84.9922 22.0273 85.1562 23.0547 85.1562 24.2734V25.1406H75.0547V23.4062H84.0664L83.1406 24.0625C83.1406 23.1875 83.0039 22.4102 82.7305 21.7305C82.457 21.0508 82.0469 20.5156 81.5 20.125C80.9609 19.7344 80.2891 19.5391 79.4844 19.5391C78.6797 19.5391 77.9883 19.7383 77.4102 20.1367C76.8398 20.5273 76.4023 21.0391 76.0977 21.6719C75.793 22.3047 75.6406 22.9844 75.6406 23.7109V24.8594C75.6406 25.8516 75.8125 26.6914 76.1562 27.3789C76.5 28.0664 76.9805 28.5898 77.5977 28.9492C78.2148 29.3008 78.9297 29.4766 79.7422 29.4766C80.2656 29.4766 80.7422 29.4023 81.1719 29.2539C81.6016 29.0977 81.9727 28.8672 82.2852 28.5625C82.5977 28.25 82.8359 27.8672 83 27.4141L84.9453 27.9766C84.7422 28.6328 84.3984 29.2109 83.9141 29.7109C83.4375 30.2031 82.8438 30.5898 82.1328 30.8711C81.4219 31.1445 80.625 31.2812 79.7422 31.2812ZM88.0156 17.8984L91.1328 23.2656L94.2734 17.8984H96.5938L92.375 24.4609L96.5938 31H94.2734L91.1328 25.9141L88.0156 31H85.6953L89.8438 24.4609L85.6953 17.8984H88.0156ZM98.3516 31V17.8984H100.344V31H98.3516ZM99.3594 15.7188C98.9688 15.7188 98.6328 15.5859 98.3516 15.3203C98.0703 15.0547 97.9297 14.7344 97.9297 14.3594C97.9297 13.9844 98.0703 13.6641 98.3516 13.3984C98.6328 13.1328 98.9688 13 99.3594 13C99.75 13 100.086 13.1328 100.367 13.3984C100.648 13.6641 100.789 13.9844 100.789 14.3594C100.789 14.7344 100.648 15.0547 100.367 15.3203C100.086 15.5859 99.75 15.7188 99.3594 15.7188ZM113.609 17.8984L108.781 31H106.719L101.891 17.8984H104.07L107.68 28.3516H107.82L111.43 17.8984H113.609ZM119.984 31.2812C118.805 31.2812 117.77 31 116.879 30.4375C115.988 29.875 115.293 29.0859 114.793 28.0703C114.301 27.0547 114.055 25.875 114.055 24.5312C114.055 23.1641 114.301 21.9727 114.793 20.957C115.293 19.9336 115.988 19.1406 116.879 18.5781C117.77 18.0156 118.805 17.7344 119.984 17.7344C121.172 17.7344 122.211 18.0156 123.102 18.5781C123.992 19.1406 124.688 19.9336 125.188 20.957C125.688 21.9727 125.938 23.1641 125.938 24.5312C125.938 25.875 125.688 27.0547 125.188 28.0703C124.688 29.0859 123.992 29.875 123.102 30.4375C122.211 31 121.172 31.2812 119.984 31.2812ZM119.984 29.4766C120.891 29.4766 121.633 29.2461 122.211 28.7852C122.789 28.3242 123.219 27.7188 123.5 26.9688C123.781 26.2109 123.922 25.3984 123.922 24.5312C123.922 23.6484 123.781 22.8281 123.5 22.0703C123.219 21.3125 122.789 20.7031 122.211 20.2422C121.633 19.7734 120.891 19.5391 119.984 19.5391C119.094 19.5391 118.359 19.7734 117.781 20.2422C117.203 20.7031 116.773 21.3125 116.492 22.0703C116.211 22.8281 116.07 23.6484 116.07 24.5312C116.07 25.3984 116.211 26.2109 116.492 26.9688C116.773 27.7188 117.203 28.3242 117.781 28.7852C118.359 29.2461 119.094 29.4766 119.984 29.4766Z" fill="black"/>
</svg>
