<svg width="1280" height="424" viewBox="0 0 1280 424" fill="none" xmlns="http://www.w3.org/2000/svg">
<path d="M80 0H0V70.6667M80 0V70.6667M80 0H160M80 70.6667H0M80 70.6667V141.333M80 70.6667H160M0 70.6667V141.333M80 141.333H0M80 141.333V212M80 141.333H160M0 141.333V212M80 212H0M80 212V282.667M80 212H160M0 212V282.667M80 282.667H0M80 282.667V353.333M80 282.667H160M0 282.667V353.333M80 353.333H0M80 353.333V424M80 353.333H160M0 353.333V424H80M80 424H160M160 0V70.6667M160 0H240M160 70.6667V141.333M160 70.6667H240M160 141.333V212M160 141.333H240M160 212V282.667M160 212H240M160 282.667V353.333M160 282.667H240M160 353.333V424M160 353.333H240M160 424H240M240 0V70.6667M240 0H320M240 70.6667V141.333M240 70.6667H320M240 141.333V212M240 141.333H320M240 212V282.667M240 212H320M240 282.667V353.333M240 282.667H320M240 353.333V424M240 353.333H320M240 424H320M320 0V70.6667M320 0H400M320 70.6667V141.333M320 70.6667H400M320 141.333V212M320 141.333H400M320 212V282.667M320 212H400M320 282.667V353.333M320 282.667H400M320 353.333V424M320 353.333H400M320 424H400M400 0V70.6667M400 0H480M400 70.6667V141.333M400 70.6667H480M400 141.333V212M400 141.333H480M400 212V282.667M400 212H480M400 282.667V353.333M400 282.667H480M400 353.333V424M400 353.333H480M400 424H480M480 0V70.6667M480 0H560M480 70.6667V141.333M480 70.6667H560M480 141.333V212M480 141.333H560M480 212V282.667M480 212H560M480 282.667V353.333M480 282.667H560M480 353.333V424M480 353.333H560M480 424H560M560 0V70.6667M560 0H640M560 70.6667V141.333M560 70.6667H640M560 141.333V212M560 141.333H640M560 212V282.667M560 212H640M560 282.667V353.333M560 282.667H640M560 353.333V424M560 353.333H640M560 424H640M640 0V70.6667M640 0H720M640 70.6667V141.333M640 70.6667H720M640 141.333V212M640 141.333H720M640 212V282.667M640 212H720M640 282.667V353.333M640 282.667H720M640 353.333V424M640 353.333H720M640 424H720M720 0V70.6667M720 0H800M720 70.6667V141.333M720 70.6667H800M720 141.333V212M720 141.333H800M720 212V282.667M720 212H800M720 282.667V353.333M720 282.667H800M720 353.333V424M720 353.333H800M720 424H800M800 0V70.6667M800 0H880M800 70.6667V141.333M800 70.6667H880M800 141.333V212M800 141.333H880M800 212V282.667M800 212H880M800 282.667V353.333M800 282.667H880M800 353.333V424M800 353.333H880M800 424H880M880 0V70.6667M880 0H960M880 70.6667V141.333M880 70.6667H960M880 141.333V212M880 141.333H960M880 212V282.667M880 212H960M880 282.667V353.333M880 282.667H960M880 353.333V424M880 353.333H960M880 424H960M960 0V70.6667M960 0H1040M960 70.6667V141.333M960 70.6667H1040M960 141.333V212M960 141.333H1040M960 212V282.667M960 212H1040M960 282.667V353.333M960 282.667H1040M960 353.333V424M960 353.333H1040M960 424H1040M1040 0V70.6667M1040 0H1120M1040 70.6667V141.333M1040 70.6667H1120M1040 141.333V212M1040 141.333H1120M1040 212V282.667M1040 212H1120M1040 282.667V353.333M1040 282.667H1120M1040 353.333V424M1040 353.333H1120M1040 424H1120M1120 0V70.6667M1120 0H1200M1120 70.6667V141.333M1120 70.6667H1200M1120 141.333V212M1120 141.333H1200M1120 212V282.667M1120 212H1200M1120 282.667V353.333M1120 282.667H1200M1120 353.333V424M1120 353.333H1200M1120 424H1200M1200 0V70.6667M1200 0H1280V70.6667M1200 70.6667V141.333M1200 70.6667H1280M1200 141.333V212M1200 141.333H1280M1200 212V282.667M1200 212H1280M1200 282.667V353.333M1200 282.667H1280M1200 353.333V424M1200 353.333H1280M1200 424H1280V353.333M1280 70.6667V141.333M1280 141.333V212M1280 212V282.667M1280 282.667V353.333" stroke="url(#paint0_radial_146_453)"/>
<defs>
<radialGradient id="paint0_radial_146_453" cx="0" cy="0" r="1" gradientUnits="userSpaceOnUse" gradientTransform="translate(640 212) rotate(90) scale(212 640)">
<stop stop-color="#C8C8C8"/>
<stop offset="1" stop-color="#EAEAEA"/>
</radialGradient>
</defs>
</svg>
